<mxfile host="app.diagrams.net" modified="2021-11-11T23:54:34.057Z" agent="5.0 (Windows NT 10.0; Win64; x64) AppleWebKit/537.36 (KHTML, like Gecko) Chrome/95.0.4638.69 Safari/537.36" etag="AXBn7frrXqsidYqi2H84" version="15.6.8" type="github">
  <diagram id="gq5jNYmDFfjNxKHS-pcb" name="Page-1">
    <mxGraphModel dx="868" dy="463" grid="1" gridSize="10" guides="1" tooltips="1" connect="1" arrows="1" fold="1" page="1" pageScale="1" pageWidth="827" pageHeight="1169" math="0" shadow="0">
      <root>
        <mxCell id="0" />
        <mxCell id="1" parent="0" />
        <mxCell id="8sm-bwsLT8Df3sj8qUKm-4" style="edgeStyle=orthogonalEdgeStyle;rounded=0;orthogonalLoop=1;jettySize=auto;html=1;entryX=0.5;entryY=0;entryDx=0;entryDy=0;" edge="1" parent="1" source="8sm-bwsLT8Df3sj8qUKm-1" target="8sm-bwsLT8Df3sj8qUKm-2">
          <mxGeometry relative="1" as="geometry" />
        </mxCell>
        <mxCell id="8sm-bwsLT8Df3sj8qUKm-1" value="criardo" style="ellipse;whiteSpace=wrap;html=1;" vertex="1" parent="1">
          <mxGeometry x="120" y="30" width="130" height="80" as="geometry" />
        </mxCell>
        <mxCell id="8sm-bwsLT8Df3sj8qUKm-5" style="edgeStyle=orthogonalEdgeStyle;rounded=0;orthogonalLoop=1;jettySize=auto;html=1;exitX=0.5;exitY=1;exitDx=0;exitDy=0;" edge="1" parent="1" source="8sm-bwsLT8Df3sj8qUKm-2" target="8sm-bwsLT8Df3sj8qUKm-3">
          <mxGeometry relative="1" as="geometry" />
        </mxCell>
        <mxCell id="8sm-bwsLT8Df3sj8qUKm-8" style="edgeStyle=orthogonalEdgeStyle;rounded=0;orthogonalLoop=1;jettySize=auto;html=1;exitX=1;exitY=0.5;exitDx=0;exitDy=0;entryX=0;entryY=0.625;entryDx=0;entryDy=0;entryPerimeter=0;" edge="1" parent="1" source="8sm-bwsLT8Df3sj8qUKm-2" target="8sm-bwsLT8Df3sj8qUKm-6">
          <mxGeometry relative="1" as="geometry" />
        </mxCell>
        <mxCell id="8sm-bwsLT8Df3sj8qUKm-2" value="to be delivery" style="ellipse;whiteSpace=wrap;html=1;" vertex="1" parent="1">
          <mxGeometry x="120" y="210" width="120" height="80" as="geometry" />
        </mxCell>
        <mxCell id="8sm-bwsLT8Df3sj8qUKm-3" value="done" style="ellipse;whiteSpace=wrap;html=1;" vertex="1" parent="1">
          <mxGeometry x="120" y="380" width="120" height="80" as="geometry" />
        </mxCell>
        <mxCell id="8sm-bwsLT8Df3sj8qUKm-10" style="edgeStyle=orthogonalEdgeStyle;rounded=0;orthogonalLoop=1;jettySize=auto;html=1;entryX=0.5;entryY=0;entryDx=0;entryDy=0;" edge="1" parent="1" source="8sm-bwsLT8Df3sj8qUKm-6" target="8sm-bwsLT8Df3sj8qUKm-9">
          <mxGeometry relative="1" as="geometry" />
        </mxCell>
        <mxCell id="8sm-bwsLT8Df3sj8qUKm-12" style="edgeStyle=orthogonalEdgeStyle;rounded=0;orthogonalLoop=1;jettySize=auto;html=1;exitX=0.5;exitY=1;exitDx=0;exitDy=0;entryX=0.5;entryY=0;entryDx=0;entryDy=0;" edge="1" parent="1" source="8sm-bwsLT8Df3sj8qUKm-6" target="8sm-bwsLT8Df3sj8qUKm-11">
          <mxGeometry relative="1" as="geometry" />
        </mxCell>
        <mxCell id="8sm-bwsLT8Df3sj8qUKm-6" value="falhou" style="ellipse;whiteSpace=wrap;html=1;" vertex="1" parent="1">
          <mxGeometry x="460" y="80" width="120" height="80" as="geometry" />
        </mxCell>
        <mxCell id="8sm-bwsLT8Df3sj8qUKm-9" value="cancelado definitivo" style="ellipse;whiteSpace=wrap;html=1;" vertex="1" parent="1">
          <mxGeometry x="660" y="200" width="120" height="80" as="geometry" />
        </mxCell>
        <mxCell id="8sm-bwsLT8Df3sj8qUKm-13" style="edgeStyle=orthogonalEdgeStyle;rounded=0;orthogonalLoop=1;jettySize=auto;html=1;exitX=0.5;exitY=1;exitDx=0;exitDy=0;entryX=0.983;entryY=0.675;entryDx=0;entryDy=0;entryPerimeter=0;" edge="1" parent="1" source="8sm-bwsLT8Df3sj8qUKm-11" target="8sm-bwsLT8Df3sj8qUKm-3">
          <mxGeometry relative="1" as="geometry">
            <Array as="points">
              <mxPoint x="520" y="490" />
              <mxPoint x="238" y="490" />
            </Array>
          </mxGeometry>
        </mxCell>
        <mxCell id="8sm-bwsLT8Df3sj8qUKm-14" style="edgeStyle=orthogonalEdgeStyle;rounded=0;orthogonalLoop=1;jettySize=auto;html=1;" edge="1" parent="1" source="8sm-bwsLT8Df3sj8qUKm-11">
          <mxGeometry relative="1" as="geometry">
            <mxPoint x="440" y="130" as="targetPoint" />
          </mxGeometry>
        </mxCell>
        <mxCell id="8sm-bwsLT8Df3sj8qUKm-11" value="tenta novamente" style="ellipse;whiteSpace=wrap;html=1;" vertex="1" parent="1">
          <mxGeometry x="460" y="330" width="120" height="80" as="geometry" />
        </mxCell>
      </root>
    </mxGraphModel>
  </diagram>
</mxfile>
